<svg width="213" height="32" viewBox="0 0 213 32" fill="none" xmlns="http://www.w3.org/2000/svg"><g clip-path="url(#a)" fill="red">
    <path d="M21.537 0v5.486h-7.525V17.87H7.526V5.486H0V0zM10.77 27.844a4.17 4.17 0 0 1-4.158-4.156 4.17 4.17 0 0 1 4.158-4.155 4.17 4.17 0 0 1 4.158 4.155 4.17 4.17 0 0 1-4.158 4.156m20.954-3.116c-.54 1.662-2.037 3.117-5.197 3.117-5.198 0-7.609-4.572-7.609-10.888 0-6.733 2.869-10.723 7.65-10.723 3.119 0 4.574 1.247 5.156 3.117h.832V6.65h5.904v20.78h-5.904v-2.702zm.832-7.605c0-4.198-1.705-6.317-3.826-6.317s-3.825 1.953-3.825 6.15c0 4.198 1.705 6.317 3.825 6.317s3.826-1.953 3.826-6.15m14.592-6.318c.208-1.08 1.871-3.532 5.862-3.532 5.156 0 7.734 3.657 7.734 9.974 0 7.148-3.742 10.597-9.397 10.597-4.116 0-6.985-1.58-8.648-4.904-1.58-3.2-1.58-6.608-1.58-9.267C41.12 2.7 46.358 0 55.34 0h4.906v5.403h-8.15c-4.74 0-5.779 2.493-5.779 5.402zm7.609 6.733c0-3.907-1.788-5.902-3.825-5.902s-3.826 1.829-3.826 5.735 1.788 5.902 3.826 5.902c2.037 0 3.825-1.829 3.825-5.735M81.2 6.648v20.78h-5.904V11.802h-4.989c0 2.327-.042 5.693-.125 8.27-.208 5.943-.665 7.771-6.486 7.771h-1.788V22.15h.54c2.246 0 2.37-1.08 2.454-5.818.041-3.034.083-6.567.083-9.684zm21.537 11.929h-12.93c0 2.91 1.288 4.488 3.866 4.488 2.037 0 3.077-1.246 3.16-2.41h5.863c-.167 2.785-2.162 7.19-8.856 7.19-6.695 0-9.938-3.865-9.938-10.722 0-6.858 3.66-10.889 9.688-10.889s9.729 4.073 9.147 12.343m-12.93-4.03h7.026c.042-2.411-1.497-3.533-3.534-3.533-1.913 0-3.493 1.205-3.493 3.532m32.057-7.898v5.154h-6.278v15.626h-5.904V11.802h-6.279V6.648zm7.775 7.73h.832l4.199-7.73h6.445l-5.488 9.933 6.07 10.847h-6.819l-4.407-7.896h-.832v7.896h-5.904V6.648h5.904z"/>
    <path d="M154.126 24.728c-.54 1.662-2.037 3.117-5.197 3.117-5.197 0-7.609-4.572-7.609-10.888 0-6.733 2.869-10.723 7.651-10.723 3.118 0 4.573 1.247 5.155 3.117h.832V6.65h5.904v20.78h-5.904v-2.702zm.832-7.605c0-4.198-1.705-6.317-3.825-6.317s-3.825 1.953-3.825 6.15c0 4.198 1.704 6.317 3.825 6.317 2.12 0 3.825-1.953 3.825-6.15m12.35 10.72a4.17 4.17 0 0 1-4.158-4.156 4.17 4.17 0 0 1 4.158-4.156 4.17 4.17 0 0 1 4.158 4.156 4.17 4.17 0 0 1-4.158 4.156m13.178-18.492c.54-1.662 2.037-3.117 5.197-3.117 5.197 0 7.609 4.572 7.609 10.889 0 6.732-2.869 10.722-7.651 10.722-3.118 0-4.573-1.247-5.155-3.117h-.832V32h-5.904V6.65h5.904v2.701zm-.832 7.605c0 4.198 1.705 6.317 3.825 6.317s3.825-1.953 3.825-6.15c0-4.198-1.704-6.317-3.825-6.317-2.12 0-3.825 1.953-3.825 6.15M199.03 32l1.58-4.905-7.235-20.447h6.528l3.284 11.678h.832l2.744-11.678H213L204.851 32z"/></g><defs><clipPath id="a">
    <path fill="#fff" d="M0 0h213v32H0z"/></clipPath></defs>
</svg>